# xmcd CD database file
# Copyright (C) 1997 Ti Kan
# 
# Track frame offsets:
#     182
#     12262
#     25112
#     41670
#     52210
#     61527
#     72707
#     82710
#     95012
#     106742
#     120897
#     142045
#     153395
#     164907
# 
# Disc length: 2343 seconds
# 
# Revision: 1
# Processed by: cddbd v1.4b41PL1 Copyright (c) Steve Scherf et al.
# Submitted via: DiscPlay 4.0.3
# 
DISCID=b609250e
DTITLE=Johnny Winter - Early Heat
DYEAR=1900
DGENRE=
TTITLE0=Livin' In The Blues
TTITLE1=Leavin' Blues
TTITLE2=Kind Hearted Woman
TTITLE3=Out Of Sight
TTITLE4=Road Runner
TTITLE5=Gangster Of Love
TTITLE6=By The Light Of The Silvery Moon
TTITLE7=Leave My Woman Alone
TTITLE8=Bad News
TTITLE9=Low Down Gal Of Mine
TTITLE10=Goin' Down Slow
TTITLE11=I Can't Believe You Want To Leave
TTITLE12=Avocado Green
TTITLE13=Oh My Darling
EXTD=
EXTT0=
EXTT1=
EXTT2=
EXTT3=
EXTT4=
EXTT5=
EXTT6=
EXTT7=
EXTT8=
EXTT9=
EXTT10=
EXTT11=
EXTT12=
EXTT13=
PLAYORDER=
